<svg width="22" height="19" viewBox="0 0 22 19" 
        xmlns="http://www.w3.org/2000/svg">
    <path
    d="M19.3147 1.46012C19.3147 1.46012 15.5001 -1.32635 11.1506 1.79078L11.0429 1.64588C6.21426 -1.69788 2.68564 1.08859 2.68564 1.08859C-2.88586 5.91847 1.94277 10.7483 1.94277 10.7483L10.6752 18.7845C10.9872 19.0743 11.47 19.0706 11.782 18.7845L20.0576 11.1236C20.0576 11.1236 24.8862 6.29371 19.3147 1.46383V1.46012ZM16.4064 9.31424H14.7832L13.1898 12.3608C13.0932 12.5465 12.9038 12.658 12.6958 12.658C12.6809 12.658 12.6661 12.658 12.6512 12.658C12.4283 12.6394 12.2389 12.4908 12.1683 12.279L10.3037 6.68382L8.59143 9.3031C8.48743 9.45914 8.31285 9.55573 8.12342 9.55573H5.59396C5.28567 9.55573 5.03681 9.30681 5.03681 8.99844C5.03681 8.69007 5.28567 8.44115 5.59396 8.44115H7.81885L9.99545 5.10853C10.1106 4.9302 10.3223 4.8336 10.534 4.85961C10.7457 4.88561 10.924 5.03423 10.9909 5.23485L12.8035 10.6778L13.9475 8.49316C14.0441 8.31111 14.2335 8.19594 14.4415 8.19594H16.4027C16.711 8.19594 16.9598 8.44486 16.9598 8.75323C16.9598 9.0616 16.711 9.31053 16.4027 9.31053L16.4064 9.31424Z"
     />
</svg>